<svg width="24" height="24" viewBox="0 0 24 24" fill="none" xmlns="http://www.w3.org/2000/svg">
<path d="M4.40933 17.5001L6.49956 15.4099C6.89008 15.0194 6.85325 14.3764 6.73218 13.8376C6.59148 13.2113 6.77947 12.5096 7.28807 12.001C8.05664 11.2324 9.26629 11.196 9.98989 11.9196C10.2665 12.1962 10.4321 12.5439 10.4881 12.9108C10.5082 13.0424 10.614 13.1482 10.7456 13.1683C11.1125 13.2243 11.4602 13.3899 11.7368 13.6665C12.4604 14.3901 12.424 15.5998 11.6554 16.3683C11.1468 16.8769 10.4451 17.0649 9.81883 16.9242C9.27998 16.8032 8.63702 16.7663 8.2465 17.1569L6.1051 19.2982" stroke="#38C2B9" stroke-linecap="round"/>
<path d="M17.5 4.40964L15.4038 6.50586C15.0133 6.89638 14.3702 6.85956 13.8313 6.73882C13.2046 6.59843 12.5021 6.78709 11.9927 7.29652C11.223 8.06627 11.1856 9.27687 11.9092 10.0005C12.1858 10.2771 12.5335 10.4425 12.9006 10.4983C13.0324 10.5183 13.1383 10.6242 13.1583 10.756C13.2141 11.1231 13.3795 11.4708 13.6561 11.7474C14.3797 12.471 15.5903 12.4336 16.3601 11.6639C16.8695 11.1544 17.0582 10.4519 16.9178 9.82528C16.797 9.28636 16.7602 8.64332 17.1507 8.2528L19.2902 6.11332" stroke="#38C2B9" stroke-linecap="round"/>
<path d="M8.5 8.5L8 8" stroke="#38C2B9" stroke-linecap="round"/>
<path d="M10 8L10 7.5" stroke="#38C2B9" stroke-linecap="round"/>
<path d="M8 10L7.5 10" stroke="#38C2B9" stroke-linecap="round"/>
<path d="M15.5 15.5L16 16" stroke="#38C2B9" stroke-linecap="round"/>
<path d="M14 16L14 16.5" stroke="#38C2B9" stroke-linecap="round"/>
<path d="M16 14L16.5 14" stroke="#38C2B9" stroke-linecap="round"/>
</svg>
