<svg width="24" height="24" viewBox="0 0 24 24" fill="none" xmlns="http://www.w3.org/2000/svg">
<path d="M11.0002 21.5V5C11.0002 4.33333 11.1002 3 9.5002 3C7.92285 3 7.58952 4.86603 8.5002 5.6547M11.0002 21.5C9.2153 21.5 8.6251 19.9071 9.2296 18.8536M7.86422 4.41336C7.41083 4.3306 6.9421 4.37846 6.49954 4.55269C6.05698 4.72692 5.65426 5.02215 5.32704 5.41222C4.99982 5.80229 4.75821 6.27516 4.6236 6.78895C4.489 7.30274 4.46556 7.84159 4.55536 8.35776C4.64516 8.87393 4.84542 9.3515 5.13842 9.74817C5.43141 10.1448 5.80809 10.4483 6.23509 10.6318M6.21526 17.0344C6.06677 17.322 5.99291 17.6536 6.00021 18C6.00751 18.3463 6.09575 18.6967 6.25711 19.0201C6.41847 19.3434 6.64798 19.6298 6.92529 19.8538C7.20261 20.0778 7.51917 20.2326 7.84695 20.3043C8.17473 20.3761 8.5036 20.3627 8.80444 20.2652M5.15115 9.97724C4.86489 10.0096 4.59268 10.121 4.35864 10.3016C4.12459 10.4823 3.93593 10.7265 3.80937 11.0127C3.68281 11.2989 3.62225 11.6183 3.63307 11.9425C3.64388 12.2667 3.72573 12.5858 3.87136 12.8714C4.01699 13.1571 4.22192 13.4005 4.46798 13.5801C4.71404 13.7598 4.99364 13.8701 5.28202 13.9013M4.73246 13.842C4.45023 14.0354 4.22011 14.2954 4.06247 14.5992C3.90483 14.9029 3.82455 15.2409 3.82872 15.5832C3.8329 15.9256 3.92141 16.2617 4.08642 16.5618C4.25143 16.8619 4.48783 17.1168 4.7747 17.3038C5.06157 17.4909 5.39004 17.6043 5.73103 17.6341" stroke="#38C2B9" stroke-linecap="round"/>
<path d="M7.63566 12.3094C7.93487 12.3206 8.23187 12.2472 8.50036 12.0958C8.76886 11.9443 9.00055 11.7194 9.17493 11.441C9.3493 11.1626 9.46097 10.8393 9.50005 10.4997C9.53912 10.1601 9.50439 9.81476 9.39894 9.49422C9.29349 9.17367 9.12057 8.88782 8.89549 8.66199" stroke="#38C2B9" stroke-linecap="round" stroke-linejoin="round"/>
<path d="M10.9563 14.9443C10.6447 14.9447 10.3449 15.016 10.0835 15.1519C9.82214 15.2879 9.60719 15.4843 9.45774 15.7238C9.30829 15.9633 9.22895 16.2384 9.22674 16.5249" stroke="#38C2B9" stroke-linecap="round" stroke-linejoin="round"/>
<path d="M6.55683 14.3705C6.72729 14.3685 6.89055 14.4101 7.03213 14.4916C7.17371 14.573 7.28924 14.6918 7.3685 14.8373C7.44776 14.9829 7.48829 15.1507 7.48651 15.3261" stroke="#38C2B9" stroke-linecap="round" stroke-linejoin="round"/>
<path d="M7.49997 7.00045C7.37709 6.96254 7.24573 6.95997 7.11751 6.99297C6.98929 7.02596 6.86818 7.09351 6.76489 7.18962C6.66161 7.28572 6.57935 7.40743 6.52539 7.54395C6.47144 7.68048 6.44746 7.8276 6.45557 7.9723C6.46369 8.117 6.50365 8.2548 6.57191 8.3735" stroke="#38C2B9" stroke-linecap="round" stroke-linejoin="round"/>
<path d="M13.0013 21.5V5C13.0013 4.33333 12.9013 3 14.5013 3C16.0611 3 16.4044 4.82483 15.5311 5.62805M13.0013 21.5C14.7862 21.5 15.3764 19.9071 14.7719 18.8536M16.1372 4.41336C16.5906 4.3306 17.0594 4.37846 17.5019 4.55269C17.9445 4.72692 18.3472 5.02215 18.6744 5.41222C19.0016 5.80229 19.2433 6.27516 19.3779 6.78895C19.5125 7.30274 19.5359 7.84159 19.4461 8.35776C19.3563 8.87393 19.156 9.3515 18.863 9.74817C18.5701 10.1448 18.1934 10.4483 17.7664 10.6318M17.7862 17.0344C17.9347 17.322 18.0086 17.6536 18.0013 18C17.994 18.3463 17.9057 18.6967 17.7444 19.0201C17.583 19.3434 17.3535 19.6298 17.0762 19.8538C16.7989 20.0778 16.4823 20.2326 16.1545 20.3043C15.8268 20.3761 15.4979 20.3627 15.1971 20.2652M18.8503 9.97724C19.1366 10.0096 19.4088 10.121 19.6428 10.3016C19.8769 10.4823 20.0655 10.7265 20.1921 11.0127C20.3187 11.2989 20.3792 11.6183 20.3684 11.9425C20.3576 12.2667 20.2757 12.5858 20.1301 12.8714C19.9845 13.1571 19.7795 13.4005 19.5335 13.5801C19.2874 13.7598 19.0078 13.8701 18.7194 13.9013M19.269 13.842C19.5512 14.0354 19.7814 14.2954 19.939 14.5992C20.0966 14.9029 20.1769 15.2409 20.1727 15.5832C20.1686 15.9256 20.0801 16.2617 19.915 16.5618C19.75 16.8619 19.5136 17.1168 19.2268 17.3038C18.9399 17.4909 18.6114 17.6043 18.2704 17.6341" stroke="#38C2B9" stroke-linecap="round"/>
<path d="M16.8884 12.0659C16.5953 12.1271 16.2902 12.1045 16.0001 12.0001C15.7101 11.8957 15.444 11.7128 15.2254 11.4675C15.0069 11.2222 14.8427 10.9222 14.7473 10.5939C14.6519 10.2657 14.6283 9.91941 14.6786 9.58573" stroke="#38C2B9" stroke-linecap="round" stroke-linejoin="round"/>
<path d="M15.3949 16.6995C15.7062 16.6863 16.0028 16.6026 16.2584 16.456C16.5139 16.3094 16.7206 16.1042 16.86 15.8588C16.9995 15.6133 17.0674 15.3352 17.0578 15.0489" stroke="#38C2B9" stroke-linecap="round" stroke-linejoin="round"/>
<path d="M14.8344 13.5729C14.7716 13.7315 14.7521 13.8988 14.7775 14.0601C14.803 14.2215 14.8726 14.3718 14.9802 14.4979C15.0878 14.6239 15.23 14.7218 15.3944 14.7828" stroke="#38C2B9" stroke-linecap="round" stroke-linejoin="round"/>
<path d="M16.6948 7.35406C16.8126 7.40566 16.9137 7.48956 16.9892 7.59833C17.0647 7.70709 17.1122 7.83736 17.1276 7.97761C17.143 8.11785 17.1257 8.26373 17.0773 8.40233C17.029 8.54093 16.951 8.66797 16.8503 8.77219C16.7496 8.87642 16.6293 8.95461 16.5 8.99985" stroke="#38C2B9" stroke-linecap="round" stroke-linejoin="round"/>
</svg>
