<svg width="78" height="78" viewBox="0 0 78 78" fill="none" xmlns="http://www.w3.org/2000/svg">
<path fill-rule="evenodd" clip-rule="evenodd" d="M38.9998 70.2001C56.2311 70.2001 70.1998 56.2313 70.1998 39C70.1998 21.7688 56.2311 7.80005 38.9998 7.80005C21.7685 7.80005 7.7998 21.7688 7.7998 39C7.7998 56.2313 21.7685 70.2001 38.9998 70.2001ZM54.0404 31.9455C54.9905 30.639 54.7017 28.8096 53.3952 27.8595C52.0887 26.9093 50.2594 27.1982 49.3093 28.5046L35.7226 47.1863L28.3931 39.8568C27.2508 38.7145 25.3988 38.7145 24.2565 39.8568C23.1142 40.999 23.1142 42.8511 24.2565 43.9933L34.0065 53.7433C34.6114 54.3482 35.4508 54.658 36.3036 54.5911C37.1564 54.5242 37.9372 54.0873 38.4404 53.3955L54.0404 31.9455Z" fill="#06B3A7"/>
</svg>
