<svg width="24" height="24" viewBox="0 0 24 24" fill="none" xmlns="http://www.w3.org/2000/svg">
<path d="M12.0112 12.2801C14.6117 12.2801 16.7197 9.86687 16.7197 6.89004C16.7197 3.9132 14.6117 1.5 12.0112 1.5C9.4108 1.5 7.30273 3.9132 7.30273 6.89004C7.30273 9.86687 9.4108 12.2801 12.0112 12.2801Z" stroke="#38C2B9" stroke-miterlimit="10" stroke-linecap="round" stroke-linejoin="round"/>
<path d="M6.59666 7.777C6.98673 7.777 7.30293 7.41659 7.30293 6.972C7.30293 6.52741 6.98673 6.16699 6.59666 6.16699C6.2066 6.16699 5.89038 6.52741 5.89038 6.972C5.89038 7.41659 6.2066 7.777 6.59666 7.777Z" stroke="#38C2B9" stroke-miterlimit="10" stroke-linecap="round" stroke-linejoin="round"/>
<path d="M17.4387 7.777C17.8288 7.777 18.145 7.41659 18.145 6.972C18.145 6.52741 17.8288 6.16699 17.4387 6.16699C17.0486 6.16699 16.7324 6.52741 16.7324 6.972C16.7324 7.41659 17.0486 7.777 17.4387 7.777Z" stroke="#38C2B9" stroke-miterlimit="10" stroke-linecap="round" stroke-linejoin="round"/>
<path d="M7.56226 5.11657C7.56226 5.11657 9.56337 4.94157 10.8935 3.22656C10.8935 3.22656 13.9541 6.62158 16.6968 6.23658" stroke="#38C2B9" stroke-miterlimit="10" stroke-linecap="round" stroke-linejoin="round"/>
<path d="M8.94043 7.27514C8.94043 7.27514 9.8586 6.49347 10.6473 7.27514" stroke="#38C2B9" stroke-miterlimit="10" stroke-linecap="round" stroke-linejoin="round"/>
<path d="M11.1641 9.88867C11.1641 9.88867 12.0822 10.6703 12.8709 9.88867" stroke="#38C2B9" stroke-miterlimit="10" stroke-linecap="round" stroke-linejoin="round"/>
<path d="M14.8601 7.27514C14.8601 7.27514 13.942 6.49347 13.1533 7.27514" stroke="#38C2B9" stroke-miterlimit="10" stroke-linecap="round" stroke-linejoin="round"/>
<path d="M14.9662 11.0898L20.0397 12.4315C20.7106 12.6065 21.3109 13.0265 21.6405 13.6332C21.8053 13.9365 21.9348 14.2982 21.9348 14.7415C21.9348 16.1882 22.4998 22.4999 22.4998 22.4999H12.0234" stroke="#38C2B9" stroke-miterlimit="10" stroke-linecap="round" stroke-linejoin="round"/>
<path d="M9.03359 11.0898L3.96019 12.4315C3.28922 12.6065 2.68889 13.0265 2.3593 13.6332C2.1945 13.9365 2.06501 14.2982 2.06501 14.7415C2.06501 16.1882 1.5 22.4999 1.5 22.4999H11.9764" stroke="#38C2B9" stroke-miterlimit="10" stroke-linecap="round" stroke-linejoin="round"/>
<path d="M16.5084 11.498L11.9883 15.9781V18.9764" stroke="#38C2B9" stroke-miterlimit="10" stroke-linecap="round" stroke-linejoin="round"/>
<path d="M7.45605 11.498L11.9762 15.9781" stroke="#38C2B9" stroke-miterlimit="10" stroke-linecap="round" stroke-linejoin="round"/>
<path d="M11.9763 20.6216C12.4314 20.6216 12.8003 20.256 12.8003 19.805C12.8003 19.3539 12.4314 18.9883 11.9763 18.9883C11.5213 18.9883 11.1523 19.3539 11.1523 19.805C11.1523 20.256 11.5213 20.6216 11.9763 20.6216Z" stroke="#38C2B9" stroke-miterlimit="10" stroke-linecap="round" stroke-linejoin="round"/>
<path d="M19.992 17.8686C19.6742 16.7836 18.5912 15.9902 17.2964 15.9902C16.0016 15.9902 14.9186 16.7836 14.6008 17.8686C14.5655 17.8686 14.5419 17.8686 14.5066 17.8686C14.0475 17.8686 13.8474 18.1603 13.8474 18.5219C13.8474 18.8836 14.0475 19.1753 14.5066 19.1753C14.5419 19.1753 14.5655 19.1753 14.6008 19.1753C14.9186 20.2603 16.0016 21.0536 17.2964 21.0536C18.5912 21.0536 19.6742 20.2603 19.992 19.1753C20.0273 19.1753 20.0509 19.1753 20.0862 19.1753C20.5453 19.1753 20.7689 18.8836 20.7689 18.5219C20.7689 18.1603 20.5453 17.8686 20.0862 17.8686C20.0509 17.8569 20.0155 17.8569 19.992 17.8686Z" stroke="#38C2B9" stroke-miterlimit="10" stroke-linecap="round" stroke-linejoin="round"/>
<path d="M16.8028 16.0254C16.8028 16.0254 16.6262 16.9004 17.8504 17.4137" stroke="#38C2B9" stroke-miterlimit="10" stroke-linecap="round" stroke-linejoin="round"/>
<path d="M16.3196 18.7554C16.5016 18.7554 16.6492 18.6353 16.6492 18.4871C16.6492 18.3389 16.5016 18.2188 16.3196 18.2188C16.1376 18.2188 15.99 18.3389 15.99 18.4871C15.99 18.6353 16.1376 18.7554 16.3196 18.7554Z" fill="#38C2B9"/>
<path d="M18.4739 18.7544C18.6559 18.7544 18.8035 18.6343 18.8035 18.4861C18.8035 18.3379 18.6559 18.2178 18.4739 18.2178C18.2919 18.2178 18.1443 18.3379 18.1443 18.4861C18.1443 18.6343 18.2919 18.7544 18.4739 18.7544Z" fill="#38C2B9"/>
<path d="M17.4038 19.7466C17.5858 19.7466 17.7334 19.6735 17.7334 19.5833C17.7334 19.493 17.5858 19.4199 17.4038 19.4199C17.2218 19.4199 17.0742 19.493 17.0742 19.5833C17.0742 19.6735 17.2218 19.7466 17.4038 19.7466Z" fill="#38C2B9"/>
</svg>
