<svg width="24" height="24" viewBox="0 0 24 24" fill="none" xmlns="http://www.w3.org/2000/svg">
<path d="M19.0689 8.81891C19.0689 7.45094 18.6719 6.11236 17.9262 4.96551C17.1805 3.81866 16.1181 2.91283 14.8677 2.35786C13.6174 1.80289 12.2329 1.62263 10.8821 1.83894C9.53133 2.05526 8.27235 2.65885 7.25784 3.57652C6.24334 4.49419 5.51688 5.68651 5.16659 7.00888C4.8163 8.33124 4.85722 9.72683 5.28439 11.0264C5.71156 12.326 6.50663 13.4737 7.57317 14.3303C8.6397 15.187 9.93189 15.7158 11.293 15.8526V18.0086H8.46541C8.27792 18.0086 8.09812 18.0831 7.96555 18.2156C7.83298 18.3482 7.75851 18.528 7.75851 18.7155C7.75851 18.903 7.83298 19.0828 7.96555 19.2154C8.09812 19.3479 8.27792 19.4224 8.46541 19.4224H11.293V21.5431C11.293 21.7306 11.3675 21.9104 11.5 22.043C11.6326 22.1755 11.8124 22.25 11.9999 22.25C12.1874 22.25 12.3672 22.1755 12.4998 22.043C12.6323 21.9104 12.7068 21.7306 12.7068 21.5431V19.4224H15.5344C15.7219 19.4224 15.9017 19.3479 16.0343 19.2154C16.1668 19.0828 16.2413 18.903 16.2413 18.7155C16.2413 18.528 16.1668 18.3482 16.0343 18.2156C15.9017 18.0831 15.7219 18.0086 15.5344 18.0086H12.7068V15.8526C14.4496 15.6752 16.0648 14.8579 17.2399 13.5587C18.4151 12.2595 19.0667 10.5707 19.0689 8.81891ZM6.34471 8.81891C6.34471 7.70042 6.67638 6.60704 7.29778 5.67705C7.91918 4.74706 8.8024 4.02222 9.83575 3.59419C10.8691 3.16616 12.0062 3.05417 13.1032 3.27238C14.2002 3.49058 15.2078 4.02919 15.9987 4.82008C16.7896 5.61098 17.3282 6.61864 17.5464 7.71564C17.7646 8.81264 17.6527 9.94971 17.2246 10.9831C16.7966 12.0164 16.0718 12.8996 15.1418 13.521C14.2118 14.1424 13.1184 14.4741 11.9999 14.4741C10.5006 14.4725 9.06308 13.8761 8.00288 12.8159C6.94268 11.7557 6.34634 10.3183 6.34471 8.81891Z" fill="#38C2B9"/>
</svg>
