<svg width="47" height="46" viewBox="0 0 47 46" fill="none" xmlns="http://www.w3.org/2000/svg">
<rect x="0.666626" width="46" height="46" rx="23" fill="#06B3A7" fill-opacity="0.2"/>
<path d="M29.6666 29.7191C29.9141 29.7396 30.1644 29.75 30.4172 29.75C31.4655 29.75 32.472 29.5708 33.4076 29.2413C33.414 29.1617 33.4172 29.0812 33.4172 29C33.4172 27.3431 32.0741 26 30.4172 26C29.7896 26 29.207 26.1927 28.7253 26.5222M29.6666 29.7191C29.6666 29.7294 29.6666 29.7397 29.6666 29.75C29.6666 29.975 29.6542 30.1971 29.6301 30.4156C27.8734 31.4237 25.8373 32 23.6666 32C21.496 32 19.4599 31.4237 17.7031 30.4156C17.679 30.1971 17.6666 29.975 17.6666 29.75C17.6666 29.7397 17.6667 29.7295 17.6667 29.7192M29.6666 29.7191C29.6606 28.5426 29.3161 27.4461 28.7253 26.5222M28.7253 26.5222C27.6594 24.8552 25.7921 23.75 23.6666 23.75C21.5414 23.75 19.6743 24.8549 18.6083 26.5216M18.6083 26.5216C18.1269 26.1925 17.5446 26 16.9174 26C15.2605 26 13.9174 27.3431 13.9174 29C13.9174 29.0812 13.9206 29.1617 13.9269 29.2413C14.8626 29.5708 15.869 29.75 16.9174 29.75C17.1697 29.75 17.4196 29.7396 17.6667 29.7192M18.6083 26.5216C18.0173 27.4457 17.6726 28.5424 17.6667 29.7192M26.6666 17.75C26.6666 19.4069 25.3235 20.75 23.6666 20.75C22.0098 20.75 20.6666 19.4069 20.6666 17.75C20.6666 16.0931 22.0098 14.75 23.6666 14.75C25.3235 14.75 26.6666 16.0931 26.6666 17.75ZM32.6666 20.75C32.6666 21.9926 31.6593 23 30.4166 23C29.174 23 28.1666 21.9926 28.1666 20.75C28.1666 19.5074 29.174 18.5 30.4166 18.5C31.6593 18.5 32.6666 19.5074 32.6666 20.75ZM19.1666 20.75C19.1666 21.9926 18.1593 23 16.9166 23C15.674 23 14.6666 21.9926 14.6666 20.75C14.6666 19.5074 15.674 18.5 16.9166 18.5C18.1593 18.5 19.1666 19.5074 19.1666 20.75Z" stroke="#00D5C6" stroke-width="1.5" stroke-linecap="round" stroke-linejoin="round"/>
</svg>
