<svg width="46" height="46" viewBox="0 0 46 46" fill="none" xmlns="http://www.w3.org/2000/svg">
<rect width="46" height="46" rx="23" fill="#06B3A7" fill-opacity="0.2"/>
<path d="M23.0001 15.9031C24.5538 15.9031 25.8134 14.6322 25.8134 13.0644C25.8134 11.4965 24.5538 10.2256 23.0001 10.2256C21.4463 10.2256 20.1867 11.4965 20.1867 13.0644C20.1867 14.6322 21.4463 15.9031 23.0001 15.9031Z" stroke="#00D5C6" stroke-width="1.2" stroke-miterlimit="10" stroke-linecap="round"/>
<path d="M22.9999 27.6692V34.5816C22.9999 35.2345 23.5344 35.7739 24.1815 35.7739H24.6175C25.2646 35.7739 25.7991 35.2345 25.7991 34.5816V31.6577V21.5943C25.7991 20.7 26.5165 19.9762 27.4028 19.9762H31.665H32.8888C33.4937 19.9762 34.0001 19.4794 34.0001 18.8548V18.7981C34.0001 18.1877 33.5077 17.6768 32.8888 17.6768H18.4563H13.1109C12.506 17.6768 11.9996 18.1735 11.9996 18.7981V18.8548C11.9996 19.4652 12.492 19.9762 13.1109 19.9762H19.1596C19.7223 19.9762 20.1865 20.4446 20.1865 21.0123V25.2847V34.5816C20.1865 35.2345 20.721 35.7739 21.3681 35.7739H21.8042C22.4513 35.7739 22.9858 35.2345 22.9858 34.5816" stroke="#00D5C6" stroke-width="1.2" stroke-miterlimit="10" stroke-linecap="round"/>
</svg>
