<svg width="47" height="46" viewBox="0 0 47 46" fill="none" xmlns="http://www.w3.org/2000/svg">
<rect x="0.333374" width="46" height="46" rx="23" fill="#06B3A7" fill-opacity="0.2"/>
<path opacity="0.2" d="M33.0835 25.25C33.0835 25.8433 32.9076 26.4234 32.5779 26.9167C32.2483 27.4101 31.7797 27.7946 31.2315 28.0216C30.6834 28.2487 30.0802 28.3081 29.4982 28.1924C28.9163 28.0766 28.3817 27.7909 27.9622 27.3713C27.5426 26.9518 27.2569 26.4172 27.1411 25.8353C27.0254 25.2533 27.0848 24.6501 27.3119 24.102C27.5389 23.5538 27.9234 23.0852 28.4168 22.7556C28.9101 22.4259 29.4902 22.25 30.0835 22.25C30.8791 22.25 31.6422 22.5661 32.2048 23.1287C32.7674 23.6913 33.0835 24.4544 33.0835 25.25Z" fill="#00D5C6"/>
<path d="M31.2084 25.25C31.2084 25.4725 31.1425 25.69 31.0188 25.875C30.8952 26.06 30.7195 26.2042 30.514 26.2894C30.3084 26.3745 30.0822 26.3968 29.864 26.3534C29.6457 26.31 29.4453 26.2028 29.2879 26.0455C29.1306 25.8882 29.0235 25.6877 28.9801 25.4695C28.9366 25.2512 28.9589 25.025 29.0441 24.8195C29.1292 24.6139 29.2734 24.4382 29.4584 24.3146C29.6434 24.191 29.8609 24.125 30.0834 24.125C30.3818 24.125 30.668 24.2435 30.8789 24.4545C31.0899 24.6655 31.2084 24.9516 31.2084 25.25ZM30.7819 28.9334C30.6171 29.9955 30.0784 30.9637 29.2627 31.6635C28.447 32.3633 27.4082 32.7486 26.3334 32.75H24.0834C22.8903 32.7488 21.7465 32.2743 20.9028 31.4306C20.0592 30.587 19.5847 29.4431 19.5834 28.25V24.4522C18.1336 24.2695 16.8003 23.5641 15.8337 22.4682C14.8671 21.3723 14.3336 19.9613 14.3334 18.5V14.75C14.3334 14.3522 14.4915 13.9706 14.7728 13.6893C15.0541 13.408 15.4356 13.25 15.8334 13.25H17.3334C17.5323 13.25 17.7231 13.329 17.8638 13.4697C18.0044 13.6103 18.0834 13.8011 18.0834 14C18.0834 14.1989 18.0044 14.3897 17.8638 14.5303C17.7231 14.671 17.5323 14.75 17.3334 14.75H15.8334V18.5C15.8334 19.096 15.9517 19.6861 16.1816 20.236C16.4115 20.786 16.7484 21.2847 17.1726 21.7034C17.5968 22.122 18.1 22.4522 18.6529 22.6748C19.2058 22.8974 19.7975 23.0079 20.3934 23C22.8412 22.9681 24.8334 20.9141 24.8334 18.4222V14.75H23.3334C23.1345 14.75 22.9438 14.671 22.8031 14.5303C22.6625 14.3897 22.5834 14.1989 22.5834 14C22.5834 13.8011 22.6625 13.6103 22.8031 13.4697C22.9438 13.329 23.1345 13.25 23.3334 13.25H24.8334C25.2313 13.25 25.6128 13.408 25.8941 13.6893C26.1754 13.9706 26.3334 14.3522 26.3334 14.75V18.4222C26.3334 21.5009 24.0337 24.0744 21.0834 24.4513V28.25C21.0834 29.0456 21.3995 29.8087 21.9621 30.3713C22.5247 30.9339 23.2878 31.25 24.0834 31.25H26.3334C27.0147 31.2489 27.6754 31.0163 28.2072 30.5905C28.739 30.1647 29.1103 29.5708 29.2603 28.9062C28.3545 28.7028 27.5564 28.1706 27.0204 27.4126C26.4844 26.6546 26.2486 25.7248 26.3586 24.803C26.4686 23.8812 26.9167 23.0329 27.616 22.4224C28.3154 21.8119 29.2163 21.4825 30.1445 21.4979C31.0728 21.5134 31.9623 21.8726 32.6409 22.506C33.3196 23.1395 33.7392 24.0021 33.8185 24.9271C33.8978 25.852 33.6312 26.7735 33.0702 27.5133C32.5093 28.253 31.6939 28.7583 30.7819 28.9316V28.9334ZM32.3334 25.25C32.3334 24.805 32.2015 24.37 31.9542 24C31.707 23.63 31.3556 23.3416 30.9445 23.1713C30.5333 23.001 30.0809 22.9564 29.6445 23.0432C29.208 23.13 28.8071 23.3443 28.4924 23.659C28.1778 23.9737 27.9635 24.3746 27.8767 24.811C27.7899 25.2475 27.8344 25.6999 28.0047 26.111C28.175 26.5222 28.4634 26.8736 28.8334 27.1208C29.2034 27.368 29.6384 27.5 30.0834 27.5C30.6802 27.5 31.2525 27.2629 31.6744 26.841C32.0964 26.419 32.3334 25.8467 32.3334 25.25Z" fill="#00D5C6"/>
</svg>
