<svg width="32" height="29" viewBox="0 0 32 29" fill="none" xmlns="http://www.w3.org/2000/svg">
<path fill-rule="evenodd" clip-rule="evenodd" d="M6.04323 11.3389C6.16715 11.4288 6.24837 11.5744 6.24837 11.7386V14.0601C6.24837 14.3316 6.02638 14.5536 5.75482 14.5536H5.11463C4.84309 14.5536 4.62109 14.3316 4.62109 14.0601V11.7386C4.62109 11.5781 4.69871 11.4351 4.81794 11.3449V10.8777V8.94157L15.7265 6.26337L26.2001 8.9379V11.3449C26.3193 11.4351 26.3969 11.5781 26.3969 11.7386V14.0601C26.3969 14.3316 26.1749 14.5536 25.9033 14.5536H25.2632C24.9916 14.5536 24.7696 14.3316 24.7696 14.0601V11.7386C24.7696 11.5744 24.8509 11.4288 24.9748 11.3389V10.2075V9.83053L15.5105 7.45861L6.04323 9.83053V10.2075V11.3389Z" fill="white"/>
<path fill-rule="evenodd" clip-rule="evenodd" d="M4.80664 23.7885H26.1887V14.9333C26.1051 14.9981 26.0007 15.0364 25.8877 15.0364H25.2476C25.1422 15.0364 25.044 15.003 24.9634 14.9459V22.0802V22.5632H6.03191V22.0802V14.9396C5.94964 15.0004 5.84856 15.0364 5.73922 15.0364H5.09897C4.98999 15.0364 4.88854 15.0004 4.80664 14.94V21.9563V23.7885Z" fill="white"/>
<path fill-rule="evenodd" clip-rule="evenodd" d="M4.27359 24.749H26.6215L30.5153 28.8335H22.7278H8.16731H0.379883L4.27359 24.749ZM15.462 27.9063C14.596 27.9063 13.7792 27.8061 13.06 27.6296L15.5565 26.0595L17.9647 27.6046C17.2212 27.7966 16.3686 27.9063 15.462 27.9063Z" fill="white"/>
<path fill-rule="evenodd" clip-rule="evenodd" d="M20.2649 17.0846C19.6022 15.6545 17.9245 15.0355 16.5222 15.7173C15.1275 16.3953 14.5348 18.1193 15.1966 19.5494C15.8589 20.9784 17.5306 21.5834 18.9257 20.9043C20.3276 20.2226 20.9267 18.5135 20.2649 17.0846ZM19.1614 17.6187C18.7871 16.8114 17.84 16.4618 17.048 16.8467C16.2606 17.2297 15.9262 18.2027 16.2997 19.0105C16.6737 19.817 17.6174 20.1587 18.4052 19.7753C19.1967 19.3904 19.5349 18.4257 19.1614 17.6187Z" fill="white"/>
<path fill-rule="evenodd" clip-rule="evenodd" d="M17.308 17.2119C17.269 17.2119 17.236 17.2447 17.236 17.2839V17.7916H16.7282C16.6886 17.7916 16.6562 17.8245 16.6562 17.8634V18.733C16.6562 18.7724 16.6886 18.805 16.7282 18.805H17.236V19.3133C17.236 19.3524 17.269 19.3853 17.308 19.3853H18.1776C18.2166 19.3853 18.2494 19.3524 18.2494 19.3133V18.805H18.757C18.7963 18.805 18.8292 18.7724 18.8292 18.733V17.8634C18.8292 17.8245 18.7963 17.7916 18.757 17.7916H18.2494V17.2839C18.2494 17.2447 18.2166 17.2119 18.1776 17.2119H17.308Z" fill="white"/>
<path fill-rule="evenodd" clip-rule="evenodd" d="M16.0545 6.632C15.5226 3.89304 17.3951 1.12404 19.9391 1.7081C20.2668 1.78373 20.4294 1.8452 20.7201 2.01306C20.7544 2.03321 20.7862 2.04935 20.8208 2.07545C21.0253 2.23074 20.9787 2.18252 21.1994 2.38832C21.6537 2.81016 22.133 3.75564 22.4309 4.29147C22.6192 4.63139 22.8178 4.95512 23.0355 5.25776C23.2562 5.56532 23.496 5.81504 23.7983 6.02877L23.9509 6.12393C24.1785 6.24949 24.2314 6.27425 24.4983 6.36476C24.6337 6.41065 24.832 6.44899 24.9757 6.47578C27.2264 6.87944 29.8764 5.87981 30.5738 9.31119C30.6647 9.75617 30.6775 10.0079 30.6871 10.4472C30.7998 15.6837 23.6443 17.4203 19.4545 18.0001C19.4842 18.0484 19.5113 18.0986 19.5357 18.1514C19.6517 18.4022 19.6897 18.6701 19.6596 18.9264C24.4788 18.2446 31.7291 16.0643 31.6181 10.3019C31.6062 9.7654 31.5487 9.30195 31.4129 8.78855C31.4024 8.74891 31.3442 8.56689 31.3465 8.54941L31.2259 8.20781C31.2187 8.20053 31.114 7.95344 31.0961 7.91644C30.9851 7.67625 30.816 7.3928 30.6561 7.19098C28.6836 4.69387 26.5927 6.13219 24.7302 5.43415C24.6513 5.40474 24.5872 5.37633 24.5142 5.342L24.313 5.2204C23.8878 4.89337 23.6011 4.43452 23.3358 3.9674C22.8214 3.06188 22.3996 2.13923 21.6269 1.48644C21.5674 1.43625 21.5056 1.38902 21.4382 1.33877C21.388 1.30147 21.1073 1.12306 21.0359 1.08905C20.9721 1.06065 20.7211 0.938694 20.6586 0.920862C20.6342 0.913956 20.6309 0.915289 20.6041 0.904713C20.5291 0.874626 20.4604 0.858124 20.3798 0.832321L20.2638 0.803917C16.8606 0.0309238 14.4041 3.54782 15.1728 6.97954L16.0545 6.632Z" fill="white"/>
</svg>
