<svg width="44" height="45" viewBox="0 0 44 45" fill="none" xmlns="http://www.w3.org/2000/svg">
<path d="M28.3242 31.232L22.8058 25.7137C22.6041 25.512 22.3658 25.4754 22.2375 25.4754C22.1091 25.4754 21.8708 25.512 21.6691 25.7137L16.1325 31.2504C15.5091 31.8737 14.5375 32.882 11.2925 32.882L18.0941 39.6654C19.1254 40.6953 20.5233 41.2738 21.9808 41.2738C23.4383 41.2738 24.8362 40.6953 25.8675 39.6654L32.6875 32.8637C31.0191 32.8637 29.6258 32.5337 28.3242 31.232ZM16.1325 14.6404L21.6691 20.177C21.8158 20.3237 22.0358 20.4154 22.2375 20.4154C22.4391 20.4154 22.6591 20.3237 22.8058 20.177L28.2875 14.6954C29.5892 13.3387 31.0742 13.027 32.7425 13.027L25.9225 6.22535C24.8912 5.19538 23.4933 4.61686 22.0358 4.61686C20.5783 4.61686 19.1804 5.19538 18.1491 6.22535L11.3475 13.0087C14.5741 13.0087 15.5641 14.072 16.1325 14.6404Z" fill="#38C2B9"/>
<path d="M38.7011 19.0037L34.5761 14.8604H32.2661C31.2761 14.8604 30.2861 15.2637 29.6077 15.9787L24.1077 21.4787C23.5944 21.992 22.9161 22.2487 22.2377 22.2487C21.5392 22.2389 20.8706 21.9636 20.3677 21.4787L14.8311 15.9237C14.1344 15.227 13.1811 14.8237 12.1727 14.8237H9.47773L5.27939 19.0404C4.24942 20.0716 3.6709 21.4695 3.6709 22.927C3.6709 24.3845 4.24942 25.7824 5.27939 26.8137L9.47773 31.0304H12.1911C13.1811 31.0304 14.1344 30.627 14.8494 29.9304L20.3861 24.3937C20.8994 23.8804 21.5777 23.6237 22.2561 23.6237C22.9344 23.6237 23.6127 23.8804 24.1261 24.3937L29.6444 29.912C30.3411 30.6087 31.2944 31.012 32.3027 31.012H34.6127L38.7377 26.8687C39.772 25.8189 40.3488 24.4023 40.3419 22.9286C40.335 21.4549 39.7451 20.0438 38.7011 19.0037Z" fill="#38C2B9"/>
</svg>
