<svg width="194" height="195" viewBox="0 0 194 195" fill="none" xmlns="http://www.w3.org/2000/svg">
<path d="M6.68259 0.945312H0V7.62791H6.68259V0.945312Z" fill="black"/>
<path d="M13.3652 0.945312H6.68259V7.62791H13.3652V0.945312Z" fill="black"/>
<path d="M20.0478 0.945312H13.3652V7.62791H20.0478V0.945312Z" fill="black"/>
<path d="M26.7304 0.945312H20.0478V7.62791H26.7304V0.945312Z" fill="black"/>
<path d="M33.413 0.945312H26.7304V7.62791H33.413V0.945312Z" fill="black"/>
<path d="M40.0956 0.945312H33.413V7.62791H40.0956V0.945312Z" fill="black"/>
<path d="M46.7782 0.945312H40.0956V7.62791H46.7782V0.945312Z" fill="black"/>
<path d="M60.1434 0.945312H53.4608V7.62791H60.1434V0.945312Z" fill="black"/>
<path d="M73.5085 0.945312H66.826V7.62791H73.5085V0.945312Z" fill="black"/>
<path d="M106.922 0.945312H100.239V7.62791H106.922V0.945312Z" fill="black"/>
<path d="M113.604 0.945312H106.922V7.62791H113.604V0.945312Z" fill="black"/>
<path d="M126.969 0.945312H120.287V7.62791H126.969V0.945312Z" fill="black"/>
<path d="M140.334 0.945312H133.652V7.62791H140.334V0.945312Z" fill="black"/>
<path d="M153.7 0.945312H147.017V7.62791H153.7V0.945312Z" fill="black"/>
<path d="M160.382 0.945312H153.7V7.62791H160.382V0.945312Z" fill="black"/>
<path d="M167.065 0.945312H160.382V7.62791H167.065V0.945312Z" fill="black"/>
<path d="M173.747 0.945312H167.065V7.62791H173.747V0.945312Z" fill="black"/>
<path d="M180.43 0.945312H173.747V7.62791H180.43V0.945312Z" fill="black"/>
<path d="M187.113 0.945312H180.43V7.62791H187.113V0.945312Z" fill="black"/>
<path d="M193.795 0.945312H187.113V7.62791H193.795V0.945312Z" fill="black"/>
<path d="M6.68259 7.62791H0V14.3105H6.68259V7.62791Z" fill="black"/>
<path d="M46.7782 7.62791H40.0956V14.3105H46.7782V7.62791Z" fill="black"/>
<path d="M66.826 7.62791H60.1434V14.3105H66.826V7.62791Z" fill="black"/>
<path d="M73.5085 7.62791H66.826V14.3105H73.5085V7.62791Z" fill="black"/>
<path d="M80.1911 7.62791H73.5085V14.3105H80.1911V7.62791Z" fill="black"/>
<path d="M86.8737 7.62791H80.1911V14.3105H86.8737V7.62791Z" fill="black"/>
<path d="M100.239 7.62791H93.5563V14.3105H100.239V7.62791Z" fill="black"/>
<path d="M106.922 7.62791H100.239V14.3105H106.922V7.62791Z" fill="black"/>
<path d="M153.7 7.62791H147.017V14.3105H153.7V7.62791Z" fill="black"/>
<path d="M193.795 7.62791H187.113V14.3105H193.795V7.62791Z" fill="black"/>
<path d="M6.68259 14.3105H0V20.9931H6.68259V14.3105Z" fill="black"/>
<path d="M20.0478 14.3105H13.3652V20.9931H20.0478V14.3105Z" fill="black"/>
<path d="M26.7304 14.3105H20.0478V20.9931H26.7304V14.3105Z" fill="black"/>
<path d="M33.413 14.3105H26.7304V20.9931H33.413V14.3105Z" fill="black"/>
<path d="M46.7782 14.3105H40.0956V20.9931H46.7782V14.3105Z" fill="black"/>
<path d="M73.5085 14.3105H66.826V20.9931H73.5085V14.3105Z" fill="black"/>
<path d="M80.1911 14.3105H73.5085V20.9931H80.1911V14.3105Z" fill="black"/>
<path d="M86.8737 14.3105H80.1911V20.9931H86.8737V14.3105Z" fill="black"/>
<path d="M93.5563 14.3105H86.8737V20.9931H93.5563V14.3105Z" fill="black"/>
<path d="M106.922 14.3105H100.239V20.9931H106.922V14.3105Z" fill="black"/>
<path d="M113.604 14.3105H106.922V20.9931H113.604V14.3105Z" fill="black"/>
<path d="M133.652 14.3105H126.969V20.9931H133.652V14.3105Z" fill="black"/>
<path d="M140.334 14.3105H133.652V20.9931H140.334V14.3105Z" fill="black"/>
<path d="M153.7 14.3105H147.017V20.9931H153.7V14.3105Z" fill="black"/>
<path d="M167.065 14.3105H160.382V20.9931H167.065V14.3105Z" fill="black"/>
<path d="M173.747 14.3105H167.065V20.9931H173.747V14.3105Z" fill="black"/>
<path d="M180.43 14.3105H173.747V20.9931H180.43V14.3105Z" fill="black"/>
<path d="M193.795 14.3105H187.113V20.9931H193.795V14.3105Z" fill="black"/>
<path d="M6.68259 20.9931H0V27.6757H6.68259V20.9931Z" fill="black"/>
<path d="M20.0478 20.9931H13.3652V27.6757H20.0478V20.9931Z" fill="black"/>
<path d="M26.7304 20.9931H20.0478V27.6757H26.7304V20.9931Z" fill="black"/>
<path d="M33.413 20.9931H26.7304V27.6757H33.413V20.9931Z" fill="black"/>
<path d="M46.7782 20.9931H40.0956V27.6757H46.7782V20.9931Z" fill="black"/>
<path d="M60.1434 20.9931H53.4608V27.6757H60.1434V20.9931Z" fill="black"/>
<path d="M66.826 20.9931H60.1434V27.6757H66.826V20.9931Z" fill="black"/>
<path d="M73.5085 20.9931H66.826V27.6757H73.5085V20.9931Z" fill="black"/>
<path d="M80.1911 20.9931H73.5085V27.6757H80.1911V20.9931Z" fill="black"/>
<path d="M93.5563 20.9931H86.8737V27.6757H93.5563V20.9931Z" fill="black"/>
<path d="M113.604 20.9931H106.922V27.6757H113.604V20.9931Z" fill="black"/>
<path d="M133.652 20.9931H126.969V27.6757H133.652V20.9931Z" fill="black"/>
<path d="M153.7 20.9931H147.017V27.6757H153.7V20.9931Z" fill="black"/>
<path d="M167.065 20.9931H160.382V27.6757H167.065V20.9931Z" fill="black"/>
<path d="M173.747 20.9931H167.065V27.6757H173.747V20.9931Z" fill="black"/>
<path d="M180.43 20.9931H173.747V27.6757H180.43V20.9931Z" fill="black"/>
<path d="M193.795 20.9931H187.113V27.6757H193.795V20.9931Z" fill="black"/>
<path d="M6.68259 27.6757H0V34.3583H6.68259V27.6757Z" fill="black"/>
<path d="M20.0478 27.6757H13.3652V34.3583H20.0478V27.6757Z" fill="black"/>
<path d="M26.7304 27.6757H20.0478V34.3583H26.7304V27.6757Z" fill="black"/>
<path d="M33.413 27.6757H26.7304V34.3583H33.413V27.6757Z" fill="black"/>
<path d="M46.7782 27.6757H40.0956V34.3583H46.7782V27.6757Z" fill="black"/>
<path d="M93.5563 27.6757H86.8737V34.3583H93.5563V27.6757Z" fill="black"/>
<path d="M100.239 27.6757H93.5563V34.3583H100.239V27.6757Z" fill="black"/>
<path d="M106.922 27.6757H100.239V34.3583H106.922V27.6757Z" fill="black"/>
<path d="M120.287 27.6757H113.604V34.3583H120.287V27.6757Z" fill="black"/>
<path d="M153.7 27.6757H147.017V34.3583H153.7V27.6757Z" fill="black"/>
<path d="M167.065 27.6757H160.382V34.3583H167.065V27.6757Z" fill="black"/>
<path d="M173.747 27.6757H167.065V34.3583H173.747V27.6757Z" fill="black"/>
<path d="M180.43 27.6757H173.747V34.3583H180.43V27.6757Z" fill="black"/>
<path d="M193.795 27.6757H187.113V34.3583H193.795V27.6757Z" fill="black"/>
<path d="M6.68259 34.3583H0V41.0409H6.68259V34.3583Z" fill="black"/>
<path d="M46.7782 34.3583H40.0956V41.0409H46.7782V34.3583Z" fill="black"/>
<path d="M60.1434 34.3583H53.4608V41.0409H60.1434V34.3583Z" fill="black"/>
<path d="M66.826 34.3583H60.1434V41.0409H66.826V34.3583Z" fill="black"/>
<path d="M73.5085 34.3583H66.826V41.0409H73.5085V34.3583Z" fill="black"/>
<path d="M80.1911 34.3583H73.5085V41.0409H80.1911V34.3583Z" fill="black"/>
<path d="M86.8737 34.3583H80.1911V41.0409H86.8737V34.3583Z" fill="black"/>
<path d="M93.5563 34.3583H86.8737V41.0409H93.5563V34.3583Z" fill="black"/>
<path d="M106.922 34.3583H100.239V41.0409H106.922V34.3583Z" fill="black"/>
<path d="M113.604 34.3583H106.922V41.0409H113.604V34.3583Z" fill="black"/>
<path d="M153.7 34.3583H147.017V41.0409H153.7V34.3583Z" fill="black"/>
<path d="M193.795 34.3583H187.113V41.0409H193.795V34.3583Z" fill="black"/>
<path d="M6.68259 41.0409H0V47.7235H6.68259V41.0409Z" fill="black"/>
<path d="M13.3652 41.0409H6.68259V47.7235H13.3652V41.0409Z" fill="black"/>
<path d="M20.0478 41.0409H13.3652V47.7235H20.0478V41.0409Z" fill="black"/>
<path d="M26.7304 41.0409H20.0478V47.7235H26.7304V41.0409Z" fill="black"/>
<path d="M33.413 41.0409H26.7304V47.7235H33.413V41.0409Z" fill="black"/>
<path d="M40.0956 41.0409H33.413V47.7235H40.0956V41.0409Z" fill="black"/>
<path d="M46.7782 41.0409H40.0956V47.7235H46.7782V41.0409Z" fill="black"/>
<path d="M60.1434 41.0409H53.4608V47.7235H60.1434V41.0409Z" fill="black"/>
<path d="M73.5085 41.0409H66.826V47.7235H73.5085V41.0409Z" fill="black"/>
<path d="M86.8737 41.0409H80.1911V47.7235H86.8737V41.0409Z" fill="black"/>
<path d="M100.239 41.0409H93.5563V47.7235H100.239V41.0409Z" fill="black"/>
<path d="M113.604 41.0409H106.922V47.7235H113.604V41.0409Z" fill="black"/>
<path d="M126.969 41.0409H120.287V47.7235H126.969V41.0409Z" fill="black"/>
<path d="M140.334 41.0409H133.652V47.7235H140.334V41.0409Z" fill="black"/>
<path d="M153.7 41.0409H147.017V47.7235H153.7V41.0409Z" fill="black"/>
<path d="M160.382 41.0409H153.7V47.7235H160.382V41.0409Z" fill="black"/>
<path d="M167.065 41.0409H160.382V47.7235H167.065V41.0409Z" fill="black"/>
<path d="M173.747 41.0409H167.065V47.7235H173.747V41.0409Z" fill="black"/>
<path d="M180.43 41.0409H173.747V47.7235H180.43V41.0409Z" fill="black"/>
<path d="M187.113 41.0409H180.43V47.7235H187.113V41.0409Z" fill="black"/>
<path d="M193.795 41.0409H187.113V47.7235H193.795V41.0409Z" fill="black"/>
<path d="M66.826 47.7235H60.1434V54.4061H66.826V47.7235Z" fill="black"/>
<path d="M100.239 47.7235H93.5563V54.4061H100.239V47.7235Z" fill="black"/>
<path d="M120.287 47.7235H113.604V54.4061H120.287V47.7235Z" fill="black"/>
<path d="M126.969 47.7235H120.287V54.4061H126.969V47.7235Z" fill="black"/>
<path d="M133.652 47.7235H126.969V54.4061H133.652V47.7235Z" fill="black"/>
<path d="M140.334 47.7235H133.652V54.4061H140.334V47.7235Z" fill="black"/>
<path d="M40.0956 54.4061H33.413V61.0887H40.0956V54.4061Z" fill="black"/>
<path d="M46.7782 54.4061H40.0956V61.0887H46.7782V54.4061Z" fill="black"/>
<path d="M60.1434 54.4061H53.4608V61.0887H60.1434V54.4061Z" fill="black"/>
<path d="M66.826 54.4061H60.1434V61.0887H66.826V54.4061Z" fill="black"/>
<path d="M80.1911 54.4061H73.5085V61.0887H80.1911V54.4061Z" fill="black"/>
<path d="M86.8737 54.4061H80.1911V61.0887H86.8737V54.4061Z" fill="black"/>
<path d="M100.239 54.4061H93.5563V61.0887H100.239V54.4061Z" fill="black"/>
<path d="M106.922 54.4061H100.239V61.0887H106.922V54.4061Z" fill="black"/>
<path d="M113.604 54.4061H106.922V61.0887H113.604V54.4061Z" fill="black"/>
<path d="M120.287 54.4061H113.604V61.0887H120.287V54.4061Z" fill="black"/>
<path d="M147.017 54.4061H140.334V61.0887H147.017V54.4061Z" fill="black"/>
<path d="M160.382 54.4061H153.7V61.0887H160.382V54.4061Z" fill="black"/>
<path d="M173.747 54.4061H167.065V61.0887H173.747V54.4061Z" fill="black"/>
<path d="M193.795 54.4061H187.113V61.0887H193.795V54.4061Z" fill="black"/>
<path d="M6.68259 61.0887H0V67.7713H6.68259V61.0887Z" fill="black"/>
<path d="M26.7304 61.0887H20.0478V67.7713H26.7304V61.0887Z" fill="black"/>
<path d="M53.4608 61.0887H46.7782V67.7713H53.4608V61.0887Z" fill="black"/>
<path d="M60.1434 61.0887H53.4608V67.7713H60.1434V61.0887Z" fill="black"/>
<path d="M66.826 61.0887H60.1434V67.7713H66.826V61.0887Z" fill="black"/>
<path d="M106.922 61.0887H100.239V67.7713H106.922V61.0887Z" fill="black"/>
<path d="M120.287 61.0887H113.604V67.7713H120.287V61.0887Z" fill="black"/>
<path d="M133.652 61.0887H126.969V67.7713H133.652V61.0887Z" fill="black"/>
<path d="M147.017 61.0887H140.334V67.7713H147.017V61.0887Z" fill="black"/>
<path d="M6.68259 67.7713H0V74.4539H6.68259V67.7713Z" fill="black"/>
<path d="M26.7304 67.7713H20.0478V74.4539H26.7304V67.7713Z" fill="black"/>
<path d="M33.413 67.7713H26.7304V74.4539H33.413V67.7713Z" fill="black"/>
<path d="M46.7782 67.7713H40.0956V74.4539H46.7782V67.7713Z" fill="black"/>
<path d="M53.4608 67.7713H46.7782V74.4539H53.4608V67.7713Z" fill="black"/>
<path d="M60.1434 67.7713H53.4608V74.4539H60.1434V67.7713Z" fill="black"/>
<path d="M73.5085 67.7713H66.826V74.4539H73.5085V67.7713Z" fill="black"/>
<path d="M86.8737 67.7713H80.1911V74.4539H86.8737V67.7713Z" fill="black"/>
<path d="M106.922 67.7713H100.239V74.4539H106.922V67.7713Z" fill="black"/>
<path d="M126.969 67.7713H120.287V74.4539H126.969V67.7713Z" fill="black"/>
<path d="M140.334 67.7713H133.652V74.4539H140.334V67.7713Z" fill="black"/>
<path d="M153.7 67.7713H147.017V74.4539H153.7V67.7713Z" fill="black"/>
<path d="M167.065 67.7713H160.382V74.4539H167.065V67.7713Z" fill="black"/>
<path d="M180.43 67.7713H173.747V74.4539H180.43V67.7713Z" fill="black"/>
<path d="M193.795 67.7713H187.113V74.4539H193.795V67.7713Z" fill="black"/>
<path d="M40.0956 74.4539H33.413V81.1365H40.0956V74.4539Z" fill="black"/>
<path d="M73.5085 74.4539H66.826V81.1365H73.5085V74.4539Z" fill="black"/>
<path d="M93.5563 74.4539H86.8737V81.1365H93.5563V74.4539Z" fill="black"/>
<path d="M100.239 74.4539H93.5563V81.1365H100.239V74.4539Z" fill="black"/>
<path d="M113.604 74.4539H106.922V81.1365H113.604V74.4539Z" fill="black"/>
<path d="M126.969 74.4539H120.287V81.1365H126.969V74.4539Z" fill="black"/>
<path d="M133.652 74.4539H126.969V81.1365H133.652V74.4539Z" fill="black"/>
<path d="M140.334 74.4539H133.652V81.1365H140.334V74.4539Z" fill="black"/>
<path d="M147.017 74.4539H140.334V81.1365H147.017V74.4539Z" fill="black"/>
<path d="M160.382 74.4539H153.7V81.1365H160.382V74.4539Z" fill="black"/>
<path d="M167.065 74.4539H160.382V81.1365H167.065V74.4539Z" fill="black"/>
<path d="M20.0478 81.1365H13.3652V87.819H20.0478V81.1365Z" fill="black"/>
<path d="M46.7782 81.1365H40.0956V87.819H46.7782V81.1365Z" fill="black"/>
<path d="M60.1434 81.1365H53.4608V87.819H60.1434V81.1365Z" fill="black"/>
<path d="M66.826 81.1365H60.1434V87.819H66.826V81.1365Z" fill="black"/>
<path d="M73.5085 81.1365H66.826V87.819H73.5085V81.1365Z" fill="black"/>
<path d="M80.1911 81.1365H73.5085V87.819H80.1911V81.1365Z" fill="black"/>
<path d="M86.8737 81.1365H80.1911V87.819H86.8737V81.1365Z" fill="black"/>
<path d="M100.239 81.1365H93.5563V87.819H100.239V81.1365Z" fill="black"/>
<path d="M106.922 81.1365H100.239V87.819H106.922V81.1365Z" fill="black"/>
<path d="M126.969 81.1365H120.287V87.819H126.969V81.1365Z" fill="black"/>
<path d="M133.652 81.1365H126.969V87.819H133.652V81.1365Z" fill="black"/>
<path d="M153.7 81.1365H147.017V87.819H153.7V81.1365Z" fill="black"/>
<path d="M167.065 81.1365H160.382V87.819H167.065V81.1365Z" fill="black"/>
<path d="M180.43 81.1365H173.747V87.819H180.43V81.1365Z" fill="black"/>
<path d="M193.795 81.1365H187.113V87.819H193.795V81.1365Z" fill="black"/>
<path d="M6.68259 87.819H0V94.5016H6.68259V87.819Z" fill="black"/>
<path d="M13.3652 87.819H6.68259V94.5016H13.3652V87.819Z" fill="black"/>
<path d="M20.0478 87.819H13.3652V94.5016H20.0478V87.819Z" fill="black"/>
<path d="M26.7304 87.819H20.0478V94.5016H26.7304V87.819Z" fill="black"/>
<path d="M33.413 87.819H26.7304V94.5016H33.413V87.819Z" fill="black"/>
<path d="M40.0956 87.819H33.413V94.5016H40.0956V87.819Z" fill="black"/>
<path d="M106.922 87.819H100.239V94.5016H106.922V87.819Z" fill="black"/>
<path d="M113.604 87.819H106.922V94.5016H113.604V87.819Z" fill="black"/>
<path d="M126.969 87.819H120.287V94.5016H126.969V87.819Z" fill="black"/>
<path d="M133.652 87.819H126.969V94.5016H133.652V87.819Z" fill="black"/>
<path d="M147.017 87.819H140.334V94.5016H147.017V87.819Z" fill="black"/>
<path d="M153.7 87.819H147.017V94.5016H153.7V87.819Z" fill="black"/>
<path d="M160.382 87.819H153.7V94.5016H160.382V87.819Z" fill="black"/>
<path d="M187.113 87.819H180.43V94.5016H187.113V87.819Z" fill="black"/>
<path d="M193.795 87.819H187.113V94.5016H193.795V87.819Z" fill="black"/>
<path d="M13.3652 94.5016H6.68259V101.184H13.3652V94.5016Z" fill="black"/>
<path d="M26.7304 94.5016H20.0478V101.184H26.7304V94.5016Z" fill="black"/>
<path d="M33.413 94.5016H26.7304V101.184H33.413V94.5016Z" fill="black"/>
<path d="M40.0956 94.5016H33.413V101.184H40.0956V94.5016Z" fill="black"/>
<path d="M46.7782 94.5016H40.0956V101.184H46.7782V94.5016Z" fill="black"/>
<path d="M53.4608 94.5016H46.7782V101.184H53.4608V94.5016Z" fill="black"/>
<path d="M66.826 94.5016H60.1434V101.184H66.826V94.5016Z" fill="black"/>
<path d="M80.1911 94.5016H73.5085V101.184H80.1911V94.5016Z" fill="black"/>
<path d="M106.922 94.5016H100.239V101.184H106.922V94.5016Z" fill="black"/>
<path d="M113.604 94.5016H106.922V101.184H113.604V94.5016Z" fill="black"/>
<path d="M140.334 94.5016H133.652V101.184H140.334V94.5016Z" fill="black"/>
<path d="M153.7 94.5016H147.017V101.184H153.7V94.5016Z" fill="black"/>
<path d="M167.065 94.5016H160.382V101.184H167.065V94.5016Z" fill="black"/>
<path d="M173.747 94.5016H167.065V101.184H173.747V94.5016Z" fill="black"/>
<path d="M193.795 94.5016H187.113V101.184H193.795V94.5016Z" fill="black"/>
<path d="M13.3652 101.184H6.68259V107.867H13.3652V101.184Z" fill="black"/>
<path d="M26.7304 101.184H20.0478V107.867H26.7304V101.184Z" fill="black"/>
<path d="M60.1434 101.184H53.4608V107.867H60.1434V101.184Z" fill="black"/>
<path d="M66.826 101.184H60.1434V107.867H66.826V101.184Z" fill="black"/>
<path d="M80.1911 101.184H73.5085V107.867H80.1911V101.184Z" fill="black"/>
<path d="M93.5563 101.184H86.8737V107.867H93.5563V101.184Z" fill="black"/>
<path d="M100.239 101.184H93.5563V107.867H100.239V101.184Z" fill="black"/>
<path d="M113.604 101.184H106.922V107.867H113.604V101.184Z" fill="black"/>
<path d="M120.287 101.184H113.604V107.867H120.287V101.184Z" fill="black"/>
<path d="M133.652 101.184H126.969V107.867H133.652V101.184Z" fill="black"/>
<path d="M147.017 101.184H140.334V107.867H147.017V101.184Z" fill="black"/>
<path d="M153.7 101.184H147.017V107.867H153.7V101.184Z" fill="black"/>
<path d="M167.065 101.184H160.382V107.867H167.065V101.184Z" fill="black"/>
<path d="M173.747 101.184H167.065V107.867H173.747V101.184Z" fill="black"/>
<path d="M187.113 101.184H180.43V107.867H187.113V101.184Z" fill="black"/>
<path d="M6.68259 107.867H0V114.549H6.68259V107.867Z" fill="black"/>
<path d="M20.0478 107.867H13.3652V114.549H20.0478V107.867Z" fill="black"/>
<path d="M33.413 107.867H26.7304V114.549H33.413V107.867Z" fill="black"/>
<path d="M46.7782 107.867H40.0956V114.549H46.7782V107.867Z" fill="black"/>
<path d="M73.5085 107.867H66.826V114.549H73.5085V107.867Z" fill="black"/>
<path d="M86.8737 107.867H80.1911V114.549H86.8737V107.867Z" fill="black"/>
<path d="M100.239 107.867H93.5563V114.549H100.239V107.867Z" fill="black"/>
<path d="M106.922 107.867H100.239V114.549H106.922V107.867Z" fill="black"/>
<path d="M113.604 107.867H106.922V114.549H113.604V107.867Z" fill="black"/>
<path d="M133.652 107.867H126.969V114.549H133.652V107.867Z" fill="black"/>
<path d="M140.334 107.867H133.652V114.549H140.334V107.867Z" fill="black"/>
<path d="M147.017 107.867H140.334V114.549H147.017V107.867Z" fill="black"/>
<path d="M160.382 107.867H153.7V114.549H160.382V107.867Z" fill="black"/>
<path d="M173.747 107.867H167.065V114.549H173.747V107.867Z" fill="black"/>
<path d="M13.3652 114.549H6.68259V121.232H13.3652V114.549Z" fill="black"/>
<path d="M20.0478 114.549H13.3652V121.232H20.0478V114.549Z" fill="black"/>
<path d="M53.4608 114.549H46.7782V121.232H53.4608V114.549Z" fill="black"/>
<path d="M73.5085 114.549H66.826V121.232H73.5085V114.549Z" fill="black"/>
<path d="M86.8737 114.549H80.1911V121.232H86.8737V114.549Z" fill="black"/>
<path d="M93.5563 114.549H86.8737V121.232H93.5563V114.549Z" fill="black"/>
<path d="M106.922 114.549H100.239V121.232H106.922V114.549Z" fill="black"/>
<path d="M113.604 114.549H106.922V121.232H113.604V114.549Z" fill="black"/>
<path d="M126.969 114.549H120.287V121.232H126.969V114.549Z" fill="black"/>
<path d="M133.652 114.549H126.969V121.232H133.652V114.549Z" fill="black"/>
<path d="M153.7 114.549H147.017V121.232H153.7V114.549Z" fill="black"/>
<path d="M6.68259 121.232H0V127.915H6.68259V121.232Z" fill="black"/>
<path d="M13.3652 121.232H6.68259V127.915H13.3652V121.232Z" fill="black"/>
<path d="M20.0478 121.232H13.3652V127.915H20.0478V121.232Z" fill="black"/>
<path d="M26.7304 121.232H20.0478V127.915H26.7304V121.232Z" fill="black"/>
<path d="M33.413 121.232H26.7304V127.915H33.413V121.232Z" fill="black"/>
<path d="M46.7782 121.232H40.0956V127.915H46.7782V121.232Z" fill="black"/>
<path d="M53.4608 121.232H46.7782V127.915H53.4608V121.232Z" fill="black"/>
<path d="M60.1434 121.232H53.4608V127.915H60.1434V121.232Z" fill="black"/>
<path d="M93.5563 121.232H86.8737V127.915H93.5563V121.232Z" fill="black"/>
<path d="M106.922 121.232H100.239V127.915H106.922V121.232Z" fill="black"/>
<path d="M120.287 121.232H113.604V127.915H120.287V121.232Z" fill="black"/>
<path d="M126.969 121.232H120.287V127.915H126.969V121.232Z" fill="black"/>
<path d="M133.652 121.232H126.969V127.915H133.652V121.232Z" fill="black"/>
<path d="M140.334 121.232H133.652V127.915H140.334V121.232Z" fill="black"/>
<path d="M160.382 121.232H153.7V127.915H160.382V121.232Z" fill="black"/>
<path d="M167.065 121.232H160.382V127.915H167.065V121.232Z" fill="black"/>
<path d="M6.68259 127.915H0V134.597H6.68259V127.915Z" fill="black"/>
<path d="M40.0956 127.915H33.413V134.597H40.0956V127.915Z" fill="black"/>
<path d="M60.1434 127.915H53.4608V134.597H60.1434V127.915Z" fill="black"/>
<path d="M73.5085 127.915H66.826V134.597H73.5085V127.915Z" fill="black"/>
<path d="M80.1911 127.915H73.5085V134.597H80.1911V127.915Z" fill="black"/>
<path d="M93.5563 127.915H86.8737V134.597H93.5563V127.915Z" fill="black"/>
<path d="M133.652 127.915H126.969V134.597H133.652V127.915Z" fill="black"/>
<path d="M173.747 127.915H167.065V134.597H173.747V127.915Z" fill="black"/>
<path d="M180.43 127.915H173.747V134.597H180.43V127.915Z" fill="black"/>
<path d="M187.113 127.915H180.43V134.597H187.113V127.915Z" fill="black"/>
<path d="M20.0478 134.597H13.3652V141.28H20.0478V134.597Z" fill="black"/>
<path d="M46.7782 134.597H40.0956V141.28H46.7782V134.597Z" fill="black"/>
<path d="M66.826 134.597H60.1434V141.28H66.826V134.597Z" fill="black"/>
<path d="M73.5085 134.597H66.826V141.28H73.5085V134.597Z" fill="black"/>
<path d="M93.5563 134.597H86.8737V141.28H93.5563V134.597Z" fill="black"/>
<path d="M106.922 134.597H100.239V141.28H106.922V134.597Z" fill="black"/>
<path d="M113.604 134.597H106.922V141.28H113.604V134.597Z" fill="black"/>
<path d="M120.287 134.597H113.604V141.28H120.287V134.597Z" fill="black"/>
<path d="M140.334 134.597H133.652V141.28H140.334V134.597Z" fill="black"/>
<path d="M147.017 134.597H140.334V141.28H147.017V134.597Z" fill="black"/>
<path d="M153.7 134.597H147.017V141.28H153.7V134.597Z" fill="black"/>
<path d="M160.382 134.597H153.7V141.28H160.382V134.597Z" fill="black"/>
<path d="M167.065 134.597H160.382V141.28H167.065V134.597Z" fill="black"/>
<path d="M187.113 134.597H180.43V141.28H187.113V134.597Z" fill="black"/>
<path d="M193.795 134.597H187.113V141.28H193.795V134.597Z" fill="black"/>
<path d="M60.1434 141.28H53.4608V147.962H60.1434V141.28Z" fill="black"/>
<path d="M86.8737 141.28H80.1911V147.962H86.8737V141.28Z" fill="black"/>
<path d="M100.239 141.28H93.5563V147.962H100.239V141.28Z" fill="black"/>
<path d="M106.922 141.28H100.239V147.962H106.922V141.28Z" fill="black"/>
<path d="M113.604 141.28H106.922V147.962H113.604V141.28Z" fill="black"/>
<path d="M120.287 141.28H113.604V147.962H120.287V141.28Z" fill="black"/>
<path d="M126.969 141.28H120.287V147.962H126.969V141.28Z" fill="black"/>
<path d="M140.334 141.28H133.652V147.962H140.334V141.28Z" fill="black"/>
<path d="M167.065 141.28H160.382V147.962H167.065V141.28Z" fill="black"/>
<path d="M180.43 141.28H173.747V147.962H180.43V141.28Z" fill="black"/>
<path d="M187.113 141.28H180.43V147.962H187.113V141.28Z" fill="black"/>
<path d="M6.68259 147.962H0V154.645H6.68259V147.962Z" fill="black"/>
<path d="M13.3652 147.962H6.68259V154.645H13.3652V147.962Z" fill="black"/>
<path d="M20.0478 147.962H13.3652V154.645H20.0478V147.962Z" fill="black"/>
<path d="M26.7304 147.962H20.0478V154.645H26.7304V147.962Z" fill="black"/>
<path d="M33.413 147.962H26.7304V154.645H33.413V147.962Z" fill="black"/>
<path d="M40.0956 147.962H33.413V154.645H40.0956V147.962Z" fill="black"/>
<path d="M46.7782 147.962H40.0956V154.645H46.7782V147.962Z" fill="black"/>
<path d="M66.826 147.962H60.1434V154.645H66.826V147.962Z" fill="black"/>
<path d="M80.1911 147.962H73.5085V154.645H80.1911V147.962Z" fill="black"/>
<path d="M86.8737 147.962H80.1911V154.645H86.8737V147.962Z" fill="black"/>
<path d="M100.239 147.962H93.5563V154.645H100.239V147.962Z" fill="black"/>
<path d="M120.287 147.962H113.604V154.645H120.287V147.962Z" fill="black"/>
<path d="M140.334 147.962H133.652V154.645H140.334V147.962Z" fill="black"/>
<path d="M153.7 147.962H147.017V154.645H153.7V147.962Z" fill="black"/>
<path d="M167.065 147.962H160.382V154.645H167.065V147.962Z" fill="black"/>
<path d="M173.747 147.962H167.065V154.645H173.747V147.962Z" fill="black"/>
<path d="M193.795 147.962H187.113V154.645H193.795V147.962Z" fill="black"/>
<path d="M6.68259 154.645H0V161.328H6.68259V154.645Z" fill="black"/>
<path d="M46.7782 154.645H40.0956V161.328H46.7782V154.645Z" fill="black"/>
<path d="M60.1434 154.645H53.4608V161.328H60.1434V154.645Z" fill="black"/>
<path d="M73.5085 154.645H66.826V161.328H73.5085V154.645Z" fill="black"/>
<path d="M80.1911 154.645H73.5085V161.328H80.1911V154.645Z" fill="black"/>
<path d="M93.5563 154.645H86.8737V161.328H93.5563V154.645Z" fill="black"/>
<path d="M120.287 154.645H113.604V161.328H120.287V154.645Z" fill="black"/>
<path d="M126.969 154.645H120.287V161.328H126.969V154.645Z" fill="black"/>
<path d="M133.652 154.645H126.969V161.328H133.652V154.645Z" fill="black"/>
<path d="M140.334 154.645H133.652V161.328H140.334V154.645Z" fill="black"/>
<path d="M167.065 154.645H160.382V161.328H167.065V154.645Z" fill="black"/>
<path d="M173.747 154.645H167.065V161.328H173.747V154.645Z" fill="black"/>
<path d="M187.113 154.645H180.43V161.328H187.113V154.645Z" fill="black"/>
<path d="M6.68259 161.328H0V168.01H6.68259V161.328Z" fill="black"/>
<path d="M20.0478 161.328H13.3652V168.01H20.0478V161.328Z" fill="black"/>
<path d="M26.7304 161.328H20.0478V168.01H26.7304V161.328Z" fill="black"/>
<path d="M33.413 161.328H26.7304V168.01H33.413V161.328Z" fill="black"/>
<path d="M46.7782 161.328H40.0956V168.01H46.7782V161.328Z" fill="black"/>
<path d="M73.5085 161.328H66.826V168.01H73.5085V161.328Z" fill="black"/>
<path d="M80.1911 161.328H73.5085V168.01H80.1911V161.328Z" fill="black"/>
<path d="M100.239 161.328H93.5563V168.01H100.239V161.328Z" fill="black"/>
<path d="M106.922 161.328H100.239V168.01H106.922V161.328Z" fill="black"/>
<path d="M126.969 161.328H120.287V168.01H126.969V161.328Z" fill="black"/>
<path d="M133.652 161.328H126.969V168.01H133.652V161.328Z" fill="black"/>
<path d="M140.334 161.328H133.652V168.01H140.334V161.328Z" fill="black"/>
<path d="M147.017 161.328H140.334V168.01H147.017V161.328Z" fill="black"/>
<path d="M153.7 161.328H147.017V168.01H153.7V161.328Z" fill="black"/>
<path d="M160.382 161.328H153.7V168.01H160.382V161.328Z" fill="black"/>
<path d="M167.065 161.328H160.382V168.01H167.065V161.328Z" fill="black"/>
<path d="M173.747 161.328H167.065V168.01H173.747V161.328Z" fill="black"/>
<path d="M180.43 161.328H173.747V168.01H180.43V161.328Z" fill="black"/>
<path d="M187.113 161.328H180.43V168.01H187.113V161.328Z" fill="black"/>
<path d="M193.795 161.328H187.113V168.01H193.795V161.328Z" fill="black"/>
<path d="M6.68259 168.01H0V174.693H6.68259V168.01Z" fill="black"/>
<path d="M20.0478 168.01H13.3652V174.693H20.0478V168.01Z" fill="black"/>
<path d="M26.7304 168.01H20.0478V174.693H26.7304V168.01Z" fill="black"/>
<path d="M33.413 168.01H26.7304V174.693H33.413V168.01Z" fill="black"/>
<path d="M46.7782 168.01H40.0956V174.693H46.7782V168.01Z" fill="black"/>
<path d="M66.826 168.01H60.1434V174.693H66.826V168.01Z" fill="black"/>
<path d="M73.5085 168.01H66.826V174.693H73.5085V168.01Z" fill="black"/>
<path d="M80.1911 168.01H73.5085V174.693H80.1911V168.01Z" fill="black"/>
<path d="M86.8737 168.01H80.1911V174.693H86.8737V168.01Z" fill="black"/>
<path d="M106.922 168.01H100.239V174.693H106.922V168.01Z" fill="black"/>
<path d="M113.604 168.01H106.922V174.693H113.604V168.01Z" fill="black"/>
<path d="M126.969 168.01H120.287V174.693H126.969V168.01Z" fill="black"/>
<path d="M167.065 168.01H160.382V174.693H167.065V168.01Z" fill="black"/>
<path d="M173.747 168.01H167.065V174.693H173.747V168.01Z" fill="black"/>
<path d="M6.68259 174.693H0V181.375H6.68259V174.693Z" fill="black"/>
<path d="M20.0478 174.693H13.3652V181.375H20.0478V174.693Z" fill="black"/>
<path d="M26.7304 174.693H20.0478V181.375H26.7304V174.693Z" fill="black"/>
<path d="M33.413 174.693H26.7304V181.375H33.413V174.693Z" fill="black"/>
<path d="M46.7782 174.693H40.0956V181.375H46.7782V174.693Z" fill="black"/>
<path d="M73.5085 174.693H66.826V181.375H73.5085V174.693Z" fill="black"/>
<path d="M80.1911 174.693H73.5085V181.375H80.1911V174.693Z" fill="black"/>
<path d="M93.5563 174.693H86.8737V181.375H93.5563V174.693Z" fill="black"/>
<path d="M100.239 174.693H93.5563V181.375H100.239V174.693Z" fill="black"/>
<path d="M140.334 174.693H133.652V181.375H140.334V174.693Z" fill="black"/>
<path d="M147.017 174.693H140.334V181.375H147.017V174.693Z" fill="black"/>
<path d="M160.382 174.693H153.7V181.375H160.382V174.693Z" fill="black"/>
<path d="M6.68259 181.375H0V188.058H6.68259V181.375Z" fill="black"/>
<path d="M46.7782 181.375H40.0956V188.058H46.7782V181.375Z" fill="black"/>
<path d="M73.5085 181.375H66.826V188.058H73.5085V181.375Z" fill="black"/>
<path d="M80.1911 181.375H73.5085V188.058H80.1911V181.375Z" fill="black"/>
<path d="M86.8737 181.375H80.1911V188.058H86.8737V181.375Z" fill="black"/>
<path d="M100.239 181.375H93.5563V188.058H100.239V181.375Z" fill="black"/>
<path d="M106.922 181.375H100.239V188.058H106.922V181.375Z" fill="black"/>
<path d="M113.604 181.375H106.922V188.058H113.604V181.375Z" fill="black"/>
<path d="M126.969 181.375H120.287V188.058H126.969V181.375Z" fill="black"/>
<path d="M133.652 181.375H126.969V188.058H133.652V181.375Z" fill="black"/>
<path d="M147.017 181.375H140.334V188.058H147.017V181.375Z" fill="black"/>
<path d="M153.7 181.375H147.017V188.058H153.7V181.375Z" fill="black"/>
<path d="M160.382 181.375H153.7V188.058H160.382V181.375Z" fill="black"/>
<path d="M167.065 181.375H160.382V188.058H167.065V181.375Z" fill="black"/>
<path d="M187.113 181.375H180.43V188.058H187.113V181.375Z" fill="black"/>
<path d="M193.795 181.375H187.113V188.058H193.795V181.375Z" fill="black"/>
<path d="M6.68259 188.058H0V194.741H6.68259V188.058Z" fill="black"/>
<path d="M13.3652 188.058H6.68259V194.741H13.3652V188.058Z" fill="black"/>
<path d="M20.0478 188.058H13.3652V194.741H20.0478V188.058Z" fill="black"/>
<path d="M26.7304 188.058H20.0478V194.741H26.7304V188.058Z" fill="black"/>
<path d="M33.413 188.058H26.7304V194.741H33.413V188.058Z" fill="black"/>
<path d="M40.0956 188.058H33.413V194.741H40.0956V188.058Z" fill="black"/>
<path d="M46.7782 188.058H40.0956V194.741H46.7782V188.058Z" fill="black"/>
<path d="M66.826 188.058H60.1434V194.741H66.826V188.058Z" fill="black"/>
<path d="M86.8737 188.058H80.1911V194.741H86.8737V188.058Z" fill="black"/>
<path d="M100.239 188.058H93.5563V194.741H100.239V188.058Z" fill="black"/>
<path d="M120.287 188.058H113.604V194.741H120.287V188.058Z" fill="black"/>
<path d="M126.969 188.058H120.287V194.741H126.969V188.058Z" fill="black"/>
<path d="M133.652 188.058H126.969V194.741H133.652V188.058Z" fill="black"/>
<path d="M147.017 188.058H140.334V194.741H147.017V188.058Z" fill="black"/>
<path d="M173.747 188.058H167.065V194.741H173.747V188.058Z" fill="black"/>
<path d="M180.43 188.058H173.747V194.741H180.43V188.058Z" fill="black"/>
</svg>
