<svg width="24" height="24" viewBox="0 0 24 24" fill="none" xmlns="http://www.w3.org/2000/svg">
<path d="M18.5239 15.6133L21.5003 17.8927L20.4125 19.2936L17.4361 17.0142L14.9975 15.8745L13.0969 14.0581L14.5314 12.2061L16.7906 13.5713L18.5239 15.6133Z" stroke="#38C2B9" stroke-width="0.890626" stroke-miterlimit="10" stroke-linecap="round" stroke-linejoin="round"/>
<path d="M14.2441 12.5727L13.3835 13.6771L11.9968 12.0977L12.3435 11.6465L14.2441 12.5727Z" stroke="#38C2B9" stroke-width="0.890626" stroke-miterlimit="10" stroke-linecap="round" stroke-linejoin="round"/>
<path d="M14.1128 15.0191C14.6985 15.3991 15.4755 15.2685 15.9058 14.7223C16.3362 14.1762 16.2525 13.3927 15.7504 12.9297" stroke="#38C2B9" stroke-width="0.890626" stroke-miterlimit="10" stroke-linecap="round" stroke-linejoin="round"/>
<path d="M11.8531 12.4194C12.2955 12.4194 12.654 12.0632 12.654 11.6237C12.654 11.1843 12.2955 10.8281 11.8531 10.8281C11.4108 10.8281 11.0522 11.1843 11.0522 11.6237C11.0522 12.0632 11.4108 12.4194 11.8531 12.4194Z" fill="#38C2B9"/>
<path d="M13.4317 10.899C13.4317 8.5958 11.6148 7.30176 9.37943 7.30176C7.1441 7.30176 5.32715 8.58393 5.32715 10.899C5.32715 13.2021 7.98086 15.6596 9.37943 15.6596C10.1684 15.6596 11.1486 15.066 11.9614 14.1994" stroke="#38C2B9" stroke-width="0.890626" stroke-miterlimit="10" stroke-linecap="round" stroke-linejoin="round"/>
<path d="M13.3957 10.3767C13.3957 10.3767 15.6669 7.31371 12.6904 5.17676" stroke="#38C2B9" stroke-width="0.890626" stroke-miterlimit="10" stroke-linecap="round" stroke-linejoin="round"/>
<path d="M5.35132 10.3289C5.35132 10.3289 4.00055 8.36999 5.35132 5.93624C6.69012 3.50248 8.73419 3.0276 9.75025 2.9445C10.7663 2.86139 12.4876 3.19381 12.5833 4.5947C12.6789 5.99559 12.4637 7.01657 10.9098 7.61017" stroke="#38C2B9" stroke-width="0.890626" stroke-miterlimit="10" stroke-linecap="round" stroke-linejoin="round"/>
<path d="M5.42264 5.81747C5.42264 5.81747 4.38266 3.70426 6.92879 2.01844C9.47492 0.332624 11.7102 2.04219 11.5788 3.24125" stroke="#38C2B9" stroke-width="0.890626" stroke-miterlimit="10" stroke-linecap="round" stroke-linejoin="round"/>
<path d="M10.1319 5.4616C10.1319 5.4616 7.41846 4.53535 5.20703 6.20973" stroke="#38C2B9" stroke-width="0.890626" stroke-miterlimit="10" stroke-linecap="round" stroke-linejoin="round"/>
<path d="M11.2084 14.8873V16.1457C11.2084 16.1457 15.177 16.6681 15.7747 18.4964C16.3723 20.3247 16.2767 22.0224 16.2767 22.6872H9.40337H9.37945H2.50611C2.50611 22.0224 2.41048 20.3365 3.00816 18.4964C3.60584 16.6562 7.57446 16.1457 7.57446 16.1457V14.8398" stroke="#38C2B9" stroke-width="0.890626" stroke-miterlimit="10" stroke-linecap="round" stroke-linejoin="round"/>
</svg>
