<svg width="24" height="24" viewBox="0 0 24 24" fill="none" xmlns="http://www.w3.org/2000/svg">
<path d="M10.8455 14.8081V11.2734" stroke="#38C2B9" stroke-width="0.8" stroke-miterlimit="10" stroke-linecap="round"/>
<path d="M4.2618 18.3112C5.23481 18.3112 6.02359 17.5293 6.02359 16.5648C6.02359 15.6003 5.23481 14.8184 4.2618 14.8184C3.28878 14.8184 2.5 15.6003 2.5 16.5648C2.5 17.5293 3.28878 18.3112 4.2618 18.3112Z" stroke="#38C2B9" stroke-width="0.8" stroke-miterlimit="10" stroke-linecap="round"/>
<path d="M13.4622 7.04847C14.4352 7.04847 15.224 6.26658 15.224 5.30207C15.224 4.33756 14.4352 3.55566 13.4622 3.55566C12.4892 3.55566 11.7004 4.33756 11.7004 5.30207C11.7004 6.26658 12.4892 7.04847 13.4622 7.04847Z" stroke="#38C2B9" stroke-width="0.8" stroke-miterlimit="10" stroke-linecap="round"/>
<path d="M2.5 20.4449V18.9076C2.5 18.5834 2.77429 18.3115 3.10133 18.3115H5.39061C5.54886 18.3115 5.69655 18.3743 5.8126 18.4788L6.35063 19.0122C6.46668 19.1272 6.61437 19.1795 6.77262 19.1795H20.9092C21.2362 19.1795 21.5 19.4409 21.5 19.7651V20.4449" stroke="#38C2B9" stroke-width="0.8" stroke-miterlimit="10" stroke-linecap="round"/>
<path d="M9.15689 17.5262H12.6277C13.0919 17.5262 13.4612 17.8922 13.4612 18.3523C13.4612 18.8125 13.0919 19.1785 12.6277 19.1785H8.34457C7.44785 19.1785 6.73047 18.4569 6.73047 17.5785C6.73047 16.6896 7.4584 15.9785 8.34457 15.9785H11.9104C12.1425 15.9785 12.364 15.8844 12.5328 15.7275L12.8598 15.4033" stroke="#38C2B9" stroke-width="0.8" stroke-miterlimit="10" stroke-linecap="round"/>
<path d="M19.2316 19.179H20.5608C21.0778 19.179 21.4892 18.7711 21.4892 18.2587C21.4892 17.7463 21.0778 17.3384 20.5608 17.3384H14.7902C14.5581 17.3384 14.4104 17.077 14.537 16.8783L15.2227 15.7803" stroke="#38C2B9" stroke-width="0.8" stroke-miterlimit="10" stroke-linecap="round"/>
<path d="M16.2031 14.8182H18.946C19.3786 14.8182 19.7267 14.4731 19.7267 14.0444C19.7267 13.6156 19.3786 13.2705 18.946 13.2705H13.8611" stroke="#38C2B9" stroke-width="0.8" stroke-miterlimit="10" stroke-linecap="round"/>
<path d="M12.0898 10.5417L12.6384 12.3508C12.6595 12.4345 12.7228 12.5077 12.7861 12.56L14.5374 13.7626C14.8855 14.0031 14.9383 14.5051 14.6323 14.7979C14.4002 15.028 14.0415 15.0593 13.7672 14.8816L11.4252 13.3339C11.3408 13.2816 11.2881 13.1979 11.2564 13.0933L10.423 9.53778C10.2648 8.85804 10.7922 8.19922 11.4991 8.19922H14.6534C15.1282 8.19922 15.5712 8.41883 15.8666 8.78484L18.5884 12.2672" stroke="#38C2B9" stroke-width="0.8" stroke-miterlimit="10" stroke-linecap="round"/>
<path d="M16.6491 12.2465L15.7418 10.7406C15.7101 10.6883 15.6257 10.7092 15.6257 10.7719V12.2883" stroke="#38C2B9" stroke-width="0.8" stroke-miterlimit="10" stroke-linecap="round"/>
</svg>
