<svg width="24" height="24" viewBox="0 0 24 24" fill="none" xmlns="http://www.w3.org/2000/svg">
<path d="M19.7418 9.0862L19.7418 9.08636C19.9319 10.5157 19.6638 11.9685 18.976 13.2359C18.2882 14.5032 17.2162 15.5198 15.9142 16.1394L15.8001 16.1937V16.32V20.8H9.20009V18V17.8H9.00009H8.00009C7.01055 17.8 6.20009 16.9895 6.20009 16V14V13.8H6.00009H5.00009C4.37576 13.8 3.99336 13.1113 4.31998 12.5855L4.32019 12.5857L4.32499 12.577L6.25499 9.097L6.27279 9.06492L6.27803 9.02861C6.75413 5.73482 9.57168 3.2 13.0001 3.2C16.467 3.2 19.3146 5.85289 19.7418 9.0862ZM6.70009 12.2H7.80009V16V16.2H8.00009H10.8001V19V19.2H11.0001H14.0001H14.2001V19V15.1768L14.971 14.813C16.8602 14.0323 18.2001 12.1727 18.2001 10C18.2001 7.12954 15.8705 4.8 13.0001 4.8C10.2581 4.8 8.04285 6.9197 7.83394 9.61019L6.5264 11.9009L6.35564 12.2H6.70009Z" fill="#38C2B9" stroke="#264A95" stroke-width="0.4"/>
<path d="M12.5 12.54C12.09 12.54 11.76 12.85 11.76 13.27C11.76 13.68 12.09 14.01 12.5 14.01C12.92 14.01 13.23 13.68 13.23 13.27C13.2328 13.1734 13.2158 13.0772 13.1801 12.9874C13.1444 12.8976 13.0907 12.816 13.0223 12.7477C12.954 12.6793 12.8724 12.6256 12.7826 12.5899C12.6928 12.5542 12.5966 12.5372 12.5 12.54ZM12.5 7C11.47 7 10.76 7.67 10.5 8.45L11.46 8.85C11.59 8.46 11.89 7.99 12.51 7.99C13.46 7.99 13.64 8.88 13.31 9.35C12.99 9.8 12.45 10.1 12.17 10.61C11.94 11.01 11.99 11.48 11.99 11.77H13.05C13.05 11.22 13.09 11.12 13.18 10.95C13.41 10.53 13.83 10.33 14.27 9.68C14.67 9.09 14.52 8.3 14.26 7.88C13.95 7.39 13.36 7 12.5 7Z" fill="#38C2B9"/>
</svg>
