<svg width="24" height="24" viewBox="0 0 24 24" fill="none" xmlns="http://www.w3.org/2000/svg">
<path d="M9.57098 16.4887C9.14761 17.4096 9.01002 18.4362 8.65016 19.3782C8.44101 20.1615 7.71657 19.9572 7.24248 19.5158C4.35717 16.3006 2.17153 8.50627 5.59136 4.88857C7.3395 2.94337 9 5.66895 12 5.66895C15 5.66895 16.6825 2.96134 18.4193 4.88857C21.8406 8.53406 19.5923 16.2976 16.6941 19.5158C16.2478 19.9977 15.4775 20.1406 15.2758 19.3782C14.9159 18.4362 14.7889 17.4096 14.3656 16.4887C13.4233 14.2206 10.5418 14.3096 9.57098 16.4887Z" stroke="#38C2B9" stroke-miterlimit="10"/>
<path d="M17 6C18 6.5 18 7.5 18 8" stroke="#38C2B9" stroke-linecap="round"/>
</svg>
