<svg width="161" height="276" viewBox="0 0 161 276" fill="none" xmlns="http://www.w3.org/2000/svg">
<path opacity="0.2" fill-rule="evenodd" clip-rule="evenodd" d="M-30.1189 0C-35.0113 0 -39.1644 4.16928 -39.1644 9.14313V73.624H-102.957C-107.937 73.624 -112 77.7935 -112 82.7361V193.176C-112 198.178 -107.937 202.316 -102.957 202.316H-39.1644V266.859C-39.1644 271.83 -35.0113 276 -30.1189 276H79.1393C84.0317 276 88.1542 271.83 88.1542 266.859V202.316H151.921C156.87 202.316 161 198.178 161 193.176V82.7361C161 77.7935 156.87 73.624 151.921 73.624H88.1542V9.14313C88.1542 4.16928 84.0317 0 79.1393 0H-30.1189Z" fill="#00AA9D"/>
</svg>
